# xmcd
#
# Track frame offsets:
# 150
# 17000
# 34675
# 52423
# 68967
# 87687
# 107562
# 122084
# 139178
# 156751
# 172285
# 190191
# 207618
# 222266
# 236774
# 253014
# 265292
# 278275
# 299554
# 315946
#
# Disc length: 4426 seconds
#
#
# Revision: 0
# Processed by: cddbd v1.4PL0 Copyright (c) Steve Scherf et al.
# Submitted via: FreeRIP 2.00 
#
DISCID=3a114814
DTITLE=Varios - Texanas Romanticas
DYEAR=2001
DGENRE=Latin
TTITLE0=Hasta la cima de el cielo
TTITLE1=No puedo olvidar
TTITLE2=Quien iva a pensar
TTITLE3=A pesar de todo
TTITLE4=Amigo mio
TTITLE5=Juntos
TTITLE6=Te quiero mas
TTITLE7=Infierno en el cielo
TTITLE8=Ni una lagrima
TTITLE9=Amigos
TTITLE10=Ahora dile
TTITLE11=No te olvidare
TTITLE12=Quien te puede amar
TTITLE13=Me Moriria
TTITLE14=Infiel
TTITLE15=Como es posible
TTITLE16=Aun que lejos
TTITLE17=Esta desilucion
TTITLE18=Ex novia
TTITLE19=Amiga mia
EXTD=Riped by mrbs21
EXTT0=
EXTT1=
EXTT2=
EXTT3=
EXTT4=
EXTT5=
EXTT6=
EXTT7=
EXTT8=
EXTT9=
EXTT10=
EXTT11=
EXTT12=
EXTT13=
EXTT14=
EXTT15=
EXTT16=
EXTT17=
EXTT18=
EXTT19=
PLAYORDER=
